<?xml version="1.0" encoding="UTF-8"?>
<svg xmlns="http://www.w3.org/2000/svg" xmlns:xlink="http://www.w3.org/1999/xlink" width="95pt" height="95pt" viewBox="0 0 95 95" version="1.1">
<g id="surface1">
<path style=" stroke:none;fill-rule:nonzero;fill:rgb(0%,0%,0%);fill-opacity:1;" d="M 45.441406 11.992188 C 45.273438 12.011719 44.609375 12.085938 43.964844 12.148438 C 43.332031 12.210938 42.117188 12.390625 41.273438 12.5625 C 32.648438 14.269531 27.191406 19.074219 25.375 26.546875 C 25.089844 27.75 25.058594 28.289062 25.269531 28.691406 C 25.628906 29.386719 26.25 29.703125 27.445312 29.808594 C 27.878906 29.851562 30.125 30.09375 32.4375 30.347656 C 35.519531 30.683594 36.722656 30.78125 36.988281 30.707031 C 37.503906 30.558594 38.0625 29.894531 38.265625 29.164062 C 38.832031 27.136719 39.265625 26.304688 40.289062 25.226562 C 41.863281 23.570312 43.910156 22.789062 46.601562 22.789062 C 50.097656 22.789062 52.460938 24.4375 53.296875 27.445312 C 53.570312 28.425781 53.757812 30.789062 53.707031 32.773438 L 53.675781 34.253906 L 51.40625 34.484375 C 43.265625 35.320312 39.792969 35.910156 36.363281 37.0625 C 29.503906 39.351562 25.152344 43.996094 23.8125 50.476562 C 23.347656 52.726562 23.316406 56.0625 23.738281 58.414062 C 24.867188 64.738281 28.921875 68.929688 35.140625 70.214844 C 36.449219 70.480469 40.046875 70.59375 41.84375 70.417969 C 46.917969 69.921875 50.074219 68.367188 54.667969 64.09375 L 55.710938 63.113281 L 56.535156 64.304688 C 57.898438 66.277344 58.605469 67.132812 60.019531 68.503906 C 61.445312 69.855469 61.941406 70.183594 62.636719 70.195312 C 63.257812 70.195312 63.828125 69.867188 64.992188 68.84375 C 65.5625 68.335938 67.386719 66.753906 69.054688 65.316406 C 70.722656 63.871094 72.15625 62.59375 72.242188 62.46875 C 72.472656 62.140625 72.453125 61.265625 72.210938 60.746094 C 72.105469 60.515625 71.554688 59.703125 71.007812 58.953125 C 69.78125 57.296875 69.160156 56.199219 68.726562 54.953125 C 68.050781 53.019531 68.0625 53.410156 68.03125 40.058594 C 68.007812 31.6875 67.96875 27.582031 67.882812 26.820312 C 67.386719 22.386719 66.257812 19.792969 63.765625 17.3125 C 61.550781 15.105469 58.847656 13.691406 54.972656 12.730469 C 52.800781 12.179688 51.351562 12.023438 48.449219 11.980469 C 46.972656 11.960938 45.621094 11.96875 45.441406 11.992188 Z M 53.652344 45.707031 C 53.621094 49.757812 53.453125 51.289062 52.820312 53.199219 C 52.15625 55.195312 50.824219 57.253906 49.441406 58.402344 C 48.523438 59.183594 47.078125 59.902344 46 60.113281 C 42.414062 60.820312 39.519531 58.921875 38.621094 55.257812 C 38.328125 54.054688 38.296875 51.574219 38.558594 50.382812 C 39.605469 45.757812 43.085938 43.320312 49.714844 42.601562 C 50.445312 42.519531 51.628906 42.464844 52.355469 42.464844 L 53.675781 42.484375 Z M 53.652344 45.707031 "/>
<path style=" stroke:none;fill-rule:nonzero;fill:rgb(0%,0%,0%);fill-opacity:1;" d="M 77.582031 66.5 C 75.3125 66.742188 73.085938 67.472656 71.449219 68.515625 C 70.890625 68.875 70.648438 69.285156 70.847656 69.53125 C 70.996094 69.707031 71.15625 69.707031 74.363281 69.402344 C 78.269531 69.042969 80.558594 69.308594 81.003906 70.183594 C 81.511719 71.15625 80.980469 73.65625 79.367188 77.890625 C 79.019531 78.785156 78.746094 79.597656 78.746094 79.703125 C 78.746094 80.03125 79.113281 80.148438 79.492188 79.949219 C 80.03125 79.671875 81.121094 78.492188 81.859375 77.382812 C 83.398438 75.0625 84.433594 72.050781 84.601562 69.351562 C 84.699219 67.976562 84.539062 67.480469 83.9375 67.15625 C 82.933594 66.59375 79.757812 66.277344 77.582031 66.5 Z M 77.582031 66.5 "/>
<path style=" stroke:none;fill-rule:nonzero;fill:rgb(0%,0%,0%);fill-opacity:1;" d="M 10.554688 68.082031 C 10.300781 68.335938 10.292969 68.421875 10.492188 68.800781 C 10.757812 69.308594 13.976562 71.914062 16.296875 73.507812 C 22.746094 77.941406 30.242188 80.972656 38.117188 82.324219 C 41.28125 82.871094 43.214844 83.007812 47.339844 83.007812 C 50.71875 83.007812 51.511719 82.976562 53.199219 82.777344 C 61.875 81.730469 69.8125 79.007812 75.894531 75.007812 C 77.5 73.953125 77.972656 73.550781 78.058594 73.160156 C 78.195312 72.515625 77.667969 71.925781 76.960938 71.957031 C 76.75 71.957031 75.839844 72.261719 74.945312 72.621094 C 66.679688 75.9375 57.117188 77.792969 48.34375 77.792969 C 35.773438 77.785156 23.074219 74.53125 12.488281 68.601562 C 11.78125 68.199219 11.09375 67.871094 10.976562 67.871094 C 10.863281 67.871094 10.671875 67.96875 10.554688 68.082031 Z M 10.554688 68.082031 "/>
</g>
</svg>
